<svg xmlns="http://www.w3.org/2000/svg" viewBox="0 0 279.28 199.02"><defs><style>.cls-1{fill:#a6d8e3;}.cls-2{fill:none;}</style></defs><g id="Layer_2" data-name="Layer 2"><g id="Layer_3" data-name="Layer 3"><circle class="cls-1" cx="137.88" cy="50.94" r="50.94"/><path class="cls-1" d="M235,199H40.73A97.15,97.15,0,1,1,235,199Z"/><path class="cls-1" d="M233.07,50.93a50.94,50.94,0,0,1-50.93,50.94h0a50.84,50.84,0,0,1-16.39-2.7,50.95,50.95,0,0,0,0-96.47,51,51,0,0,1,67.33,48.23Z"/><path class="cls-1" d="M279.28,199H246.5c0-48.07-34.91-92.07-80.76-99.85,5.32-.92,10.81,2.7,16.39,2.7h0A97.14,97.14,0,0,1,279.28,199Z"/><path class="cls-1" d="M46.21,50.93a50.94,50.94,0,0,0,50.93,50.94h0a50.84,50.84,0,0,0,16.39-2.7,50.95,50.95,0,0,1,0-96.47A51,51,0,0,0,46.21,50.93Z"/><path class="cls-1" d="M0,199H32.78c0-48.07,34.91-92.07,80.76-99.85-5.32-.92-10.81,2.7-16.39,2.7h0A97.14,97.14,0,0,0,0,199Z"/><line class="cls-2" x1="235.02" y1="199.02" x2="40.73" y2="199.02"/></g></g></svg>